<svg width="40" height="40" viewBox="0 0 40 40" fill="none" xmlns="http://www.w3.org/2000/svg">
<path d="M20 40C8.97203 40 0 31.028 0 20C0 8.97207 8.97203 0 20 0C31.0279 0 40 8.97207 40 20C40 31.028 31.0279 40 20 40ZM20 1.38239C9.7343 1.38239 1.38239 9.73433 1.38239 20C1.38239 30.2657 9.7343 38.6176 20 38.6176C30.2657 38.6176 38.6176 30.2657 38.6176 20C38.6176 9.73433 30.2657 1.38239 20 1.38239Z" fill="#DDDDDD"/>
<path d="M27.5165 36.8214C27.1494 36.8214 26.78 36.7824 26.413 36.7027L7.264 32.5663C4.47343 31.9636 2.69402 29.2029 3.29675 26.4124L7.43312 7.26342C8.03585 4.47284 10.7964 2.6934 13.587 3.29613L32.736 7.43253C34.0878 7.7246 35.2447 8.52526 35.9943 9.68755C36.7434 10.8498 36.9953 12.2346 36.7039 13.5858L32.5675 32.7348C32.2754 34.0866 31.4747 35.2435 30.3124 35.9932C29.4656 36.5389 28.5012 36.8208 27.5171 36.8208L27.5165 36.8214ZM26.7051 35.3515C28.7508 35.7935 30.7736 34.489 31.2151 32.4433L35.3515 13.2943C35.7935 11.2492 34.489 9.22572 32.4433 8.78432L13.2943 4.64795C12.3036 4.43385 11.2888 4.61857 10.4372 5.16793C9.58559 5.71729 8.99842 6.56531 8.78432 7.55607L4.64795 26.7051C4.20595 28.7502 5.51035 30.7736 7.55545 31.2151L26.7044 35.3515H26.7051Z" fill="#DDDDDD"/>
<path d="M22.0781 35.2231C21.1041 35.2231 20.1194 34.9491 19.2461 34.3763L7.11229 26.4148C5.95599 25.6561 5.16434 24.4926 4.88366 23.1384C4.60299 21.7842 4.86566 20.4019 5.62433 19.2456L13.5858 7.1117C14.3445 5.95541 15.508 5.16374 16.8622 4.88246C18.2164 4.60118 19.5988 4.86446 20.7551 5.62313L32.8889 13.5846C34.0452 14.3433 34.8369 15.5068 35.1181 16.861C35.3994 18.2152 35.1361 19.5976 34.3775 20.7539L26.416 32.8877C25.4228 34.4009 23.767 35.2231 22.0793 35.2231H22.0781ZM20.0042 33.22C21.7536 34.3679 24.1106 33.8785 25.2585 32.1291L33.22 19.9952C33.7759 19.1478 33.969 18.1348 33.7627 17.1423C33.557 16.1497 32.9765 15.2969 32.1291 14.7409L19.9952 6.77944C19.1478 6.22349 18.1342 6.03035 17.1423 6.23666C16.1497 6.44237 15.2969 7.02292 14.7409 7.87034L6.77944 20.0042C6.22348 20.8516 6.03035 21.8646 6.23666 22.8572C6.44237 23.8497 7.02291 24.7026 7.87034 25.2585L20.0042 33.22Z" fill="#DDDDDD"/>
</svg>
